        Meenaxi-Tale of 3 Cities 2004 DVDRip Xvid LKRG


RIPPER                           : fasamoo
Format                           : AVI
Format/Info                      : Audio Video Interleave
File size                        : 1.00 GiB
Duration                         : 2h 8mn
Overall bit rate                 : 1 117 Kbps
Writing application              : VirtualDubMod 1.5.4.1 (build 2178/release)
Writing library                  : VirtualDubMod build 2178/release
Language                         : Hindi
Subtitles                        : English(*.srt))
Genre                            : Drama

Video
ID                               : 0
Format                           : MPEG-4 Visual
Format profile                   : Advanced Simple@L5
Format settings, BVOP            : Yes
Format settings, QPel            : No
Format settings, GMC             : No warppoints
Format settings, Matrix          : Custom
Codec ID                         : XVID
Codec ID/Hint                    : XviD
Duration                         : 2h 4mn
Bit rate                         : 766 Kbps
Width                            : 480 pixels
Height                           : 272 pixels
Display aspect ratio             : 16:9
Frame rate                       : 23.976 fps
Color space                      : YUV
Chroma subsampling               : 4:2:0
Bit depth                        : 8 bits
Scan type                        : Progressive
Bits/(Pixel*Frame)               : 0.245
Stream size                      : 683 MiB (85%)
Writing library                  : XviD 1.2.1 (UTC 2008-12-04)

Audio
ID                               : 1
Format                           : MPEG Audio
Codec ID                         : 55
Codec ID/Hint                    : MP3
Duration                         : 2h 4mn
Bit rate                         : 119 Kbps
Channel(s)                       : 2 channels
Sampling rate                    : 48.0 KHz
Stream size                      : 106 MiB (13%)
Alignment                        : Split accross interleaves
Interleave, duration             : 24 ms (0.58 video frame)
Interleave, preload duration     : 1628 ms


                                 PLOT

Nawab, a popular Hyderabadi novelist, is suffering from a classic case of writer's block. Five years have passed, and stories of substance seem to have dried up. Then, almost providentially, Nawab comes across a young woman named Meenaxi. She's enigmatic and individualistic - and not quite willing to perform the part of a passive muse. But that doesn't deter a rejuvenated Nawab from giving her different personae - she can be the mysterious perfume trader of Hyderabad, the exotic desert bloom of Jaisalmer, the orphaned Maria of Prague. Inexorably, she consolidates her command over the novelist. She dismisses his renewed attempts at writing as insubstantial and hackneyed, plunging him into a state of deeper despair. She is scathingly critical about his story and is amused by one of his characters, the lovelorn and awkward Kaameshwar. Finally, as Nawab strives on a new page all over again, Meenaxi comments that perhaps the book is in vain. In any case, it is much too late. The writer must survive and live, if he can, without her support, inspiration and criticism.
  







                                 IMBD
                     
                    http://www.imdb.com/title/tt0366761/
 
http://leetleech.org/images/92271773827243336715.png 
http://leetleech.org/images/31863899581023651508.png 
http://leetleech.org/images/87971902686648025131.png 
http://leetleech.org/images/46415181701798339861.png 
http://leetleech.org/images/69230728986633028614.png 
http://leetleech.org/images/25324740230741489279.png 
http://leetleech.org/images/80617384733274513187.png
